# xmcd
#
# Track frame offsets:
#	150
#	17088
#	32108
#	45713
#	61963
#	74281
#	90739
#	102924
#	119956
#	135997
#	156962
#	172218
#	189009
#
# Disc length: 2736 seconds
#
# Revision: 1
# Processed by: cddbd v1.5.2PL0 Copyright (c) Steve Scherf et al.
# Submitted via: audiograbber 1.83.01
#
DISCID=b30aae0d
DTITLE=Various Artist - CDX Volume 543
DYEAR=2012
DGENRE=Country
TTITLE0=Rachel Holder - In Your Arms 
TTITLE1=Jessie James - When You Say My Name 
TTITLE2=Jaida Dreyer - Guy's Girl
TTITLE3=Bobby Dean - Me And George Strait
TTITLE4=Sean Patrick McGraw - Git Yer Cowboy On
TTITLE5=T.J. Maddux - Hotter Than Fireworks
TTITLE6=Mark Wayne Glasmire - I Like You 
TTITLE7=Tammie Davis - It's a Beautiful Life
TTITLE8=Steve Free - Just The Wind 
TTITLE9=Jason And The Haymakers - Only In My Dreams
TTITLE10=Nicole Donatone - Red
TTITLE11=Clay Jeffreys - The Cowboy Life
TTITLE12=Britt N Blaire - Young Summer 
EXTD=
EXTT0=
EXTT1=
EXTT2=
EXTT3=
EXTT4=
EXTT5=
EXTT6=
EXTT7=
EXTT8=
EXTT9=
EXTT10=
EXTT11=
EXTT12=
PLAYORDER=
